# xmcd
#
# Track frame offsets:
#	150
#	22820
#	44547
#	63962
#	82800
#	86112
#	107010
#	127042
#	143085
#	158827
#	176025
#
# Disc length: 2585 seconds
#
# Revision: 0
# Processed by: cddbd v1.5.2PL0 Copyright (c) Steve Scherf et al.
# Submitted via: EasyCDDAExtractor 2010.4.0.0
#
DISCID=890a170b
DTITLE=김범수 - a promise
DYEAR=1999
DGENRE=ballad
TTITLE0=약속
TTITLE1=사랑이 떠나가네
TTITLE2=사랑일뿐야
TTITLE3=너의 시작으로
TTITLE4=11월3일
TTITLE5=비가와
TTITLE6=더늦기전에
TTITLE7=이젠 떠나가세요
TTITLE8=This Masquarade
TTITLE9=첫사랑
TTITLE10=꿈
EXTD=
EXTT0=
EXTT1=
EXTT2=
EXTT3=
EXTT4=
EXTT5=
EXTT6=
EXTT7=
EXTT8=
EXTT9=
EXTT10=
PLAYORDER=
